PathFileType	4	(X/Y/Z)	RBDS015static.trc
DataRate	CameraRate	NumFrames	NumMarkers	Units	OrigDataRate	OrigDataStartFrame	OrigNumFrames
150.000000	150.000000	4	48	mm	150.000000	93	150
Frame#	Time	L.Ankle			L.Ankle.Medial			L.ASIS			L.GTR			L.Heel.Bottom			L.Heel.Lateral			L.Heel.Top			L.HF			L.Iliac.Crest			L.Knee			L.Knee.Medial			L.MT1			L.MT2			L.MT5			L.PSIS			L.Shank.Bottom.Lateral			L.Shank.Bottom.Medial			L.Shank.Top.Lateral			L.Shank.Top.Medial			L.Thigh.Bottom.Lateral			L.Thigh.Bottom.Medial			L.Thigh.Top.Lateral			L.Thigh.Top.Medial			L.TT			R.Ankle			R.Ankle.Medial			R.ASIS			R.GTR			R.Heel.Bottom			R.Heel.Lateral			R.Heel.Top			R.HF			R.Iliac.Crest			R.Knee			R.Knee.Medial			R.MT1			R.MT2			R.MT5			R.PSIS			R.Shank.Bottom.Lateral			R.Shank.Bottom.Medial			R.Shank.Top.Lateral			R.Shank.Top.Medial			R.Thigh.Bottom.Lateral			R.Thigh.Bottom.Medial			R.Thigh.Top.Lateral			R.Thigh.Top.Medial			R.TT			
		X1	Y1	Z1	X2	Y2	Z2	X3	Y3	Z3	X4	Y4	Z4	X5	Y5	Z5	X6	Y6	Z6	X7	Y7	Z7	X8	Y8	Z8	X9	Y9	Z9	X10	Y10	Z10	X11	Y11	Z11	X12	Y12	Z12	X13	Y13	Z13	X14	Y14	Z14	X15	Y15	Z15	X16	Y16	Z16	X17	Y17	Z17	X18	Y18	Z18	X19	Y19	Z19	X20	Y20	Z20	X21	Y21	Z21	X22	Y22	Z22	X23	Y23	Z23	X24	Y24	Z24	X25	Y25	Z25	X26	Y26	Z26	X27	Y27	Z27	X28	Y28	Z28	X29	Y29	Z29	X30	Y30	Z30	X31	Y31	Z31	X32	Y32	Z32	X33	Y33	Z33	X34	Y34	Z34	X35	Y35	Z35	X36	Y36	Z36	X37	Y37	Z37	X38	Y38	Z38	X39	Y39	Z39	X40	Y40	Z40	X41	Y41	Z41	X42	Y42	Z42	X43	Y43	Z43	X44	Y44	Z44	X45	Y45	Z45	X46	Y46	Z46	X47	Y47	Z47	X48	Y48	Z48	

94	0.62	699.7723999023438	107.6214218139648	1032.673095703125	714.7619018554688	118.2974472045898	1120.816284179688	815.5162963867188	1081.322875976563	1094.741943359375	728.8463745117188	988.759033203125	1049.14404296875	636.973388671875	39.95271682739258	1081.4072265625	661.241455078125	58.33571243286133	1040.398681640625	642.808349609375	82.39931488037109	1082.299560546875	696.2135009765625	511.5983276367188	1055.349731445313	735.05224609375	1158.264892578125	1061.983032226563	696.8245849609375	571.3514404296875	1061.48828125	701.9940795898438	556.296630859375	1190.433349609375	843.9022827148438	61.15208053588867	1125.629638671875	853.158935546875	70.73330688476563	1079.498779296875	817.4175415039063	48.53297805786133	1013.107482910156	641.5453491210938	1121.88427734375	1178.60888671875	692.1951904296875	211.0305786132813	1033.3115234375	648.8967895507813	205.1223754882813	1060.432861328125	683.3778686523438	291.2392883300781	1028.36962890625	638.3780517578125	288.9825744628906	1057.155517578125	715.2357788085938	704.563232421875	1041.02587890625	655.0100708007813	703.84814453125	1072.993408203125	711.0700073242188	814.9656982421875	1035.683227539063	649.4541625976563	813.8555297851563	1074.681396484375	753.9730834960938	476.7312927246094	1102.722534179688	692.4067993164063	114.880973815918	1412.805419921875	716.834228515625	117.7313003540039	1326.725341796875	835.6942749023438	1074.78759765625	1323.115600585938	756.4119262695313	989.3631591796875	1381.1767578125	633.0277099609375	41.11981201171875	1370.213500976563	660.7083740234375	61.78610610961914	1411.35107421875	641.5115356445313	87.7861328125	1370.370239257813	716.5333862304688	511.3538208007813	1376.095703125	754.9292602539063	1157.719970703125	1368.598999023438	718.358642578125	576.8817138671875	1369.129272460938	733.3841552734375	550.8389282226563	1242.588012695313	843.1466064453125	59.60480880737305	1326.54150390625	851.255615234375	72.8382568359375	1375.486572265625	808.2902221679688	50.06919479370117	1441.273681640625	647.67333984375	1121.65625	1270.09228515625	701.87744140625	208.8840179443359	1408.9609375	653.7142944335938	206.1019439697266	1381.38525390625	694.822265625	290.1808166503906	1410.385986328125	648.9718627929688	286.4950866699219	1382.363525390625	731.5352783203125	725.54150390625	1387.918701171875	668.5672607421875	722.0606689453125	1349.459838867188	719.4442749023438	834.8679809570313	1390.827514648438	661.611572265625	831.738525390625	1351.7548828125	777.5554809570313	486.4064636230469	1330.471435546875	
95	0.6266666666666667	699.7708740234375	107.6233749389648	1032.6650390625	714.766845703125	118.3103485107422	1120.813232421875	815.5872802734375	1081.310180664063	1094.748291015625	728.9041748046875	988.7578735351563	1049.11767578125	636.96826171875	39.95420074462891	1081.409912109375	661.2323608398438	58.33908843994141	1040.40234375	642.8068237304688	82.40113067626953	1082.306030273438	696.2274169921875	511.601318359375	1055.338256835938	735.1242065429688	1158.2607421875	1061.980834960938	696.8562622070313	571.3502197265625	1061.478271484375	702.0093383789063	556.3010864257813	1190.430297851563	843.9064331054688	61.15484619140625	1125.630981445313	853.1564331054688	70.73606872558594	1079.496215820313	817.4168090820313	48.53109741210938	1013.107116699219	641.5955810546875	1121.8876953125	1178.593627929688	692.205322265625	211.0352935791016	1033.3056640625	648.9044799804688	205.1218719482422	1060.430297851563	683.3961791992188	291.2400817871094	1028.370239257813	638.3916625976563	288.9860534667969	1057.145263671875	715.2734375	704.5594482421875	1041.013916015625	655.0431518554688	703.8474731445313	1072.976196289063	711.1076049804688	814.95947265625	1035.6591796875	649.484619140625	813.86767578125	1074.672119140625	753.9833374023438	476.7289428710938	1102.711181640625	692.416259765625	114.8796920776367	1412.797119140625	716.8501586914063	117.7189102172852	1326.733276367188	835.7411499023438	1074.7841796875	1323.109985351563	756.4613647460938	989.3541259765625	1381.162475585938	633.0350952148438	41.12442779541016	1370.22216796875	660.69775390625	61.78956604003906	1411.34619140625	641.5133666992188	87.78909301757813	1370.358764648438	716.5783081054688	511.3568725585938	1376.086791992188	754.9915771484375	1157.718383789063	1368.58056640625	718.3742065429688	576.8864135742188	1369.128295898438	733.4008178710938	550.843994140625	1242.577758789063	843.1461181640625	59.60386657714844	1326.535400390625	851.2485961914063	72.83818054199219	1375.475830078125	808.2879028320313	50.07329940795898	1441.275634765625	647.7352294921875	1121.6640625	1270.08203125	701.8775634765625	208.8956451416016	1408.954223632813	653.7222290039063	206.1069793701172	1381.375732421875	694.8272705078125	290.1919860839844	1410.380737304688	648.9854736328125	286.4938354492188	1382.3515625	731.5613403320313	725.5396118164063	1387.91650390625	668.5943603515625	722.0687255859375	1349.456787109375	719.4783935546875	834.8652954101563	1390.818969726563	661.6569213867188	831.7476806640625	1351.750732421875	777.57568359375	486.4056396484375	1330.466552734375	
96	0.6333333333333334	699.7736206054688	107.6298065185547	1032.670654296875	714.7760620117188	118.3078994750977	1120.816284179688	815.64697265625	1081.307250976563	1094.724365234375	728.940673828125	988.7530517578125	1049.097290039063	636.9745483398438	39.95501327514648	1081.408569335938	661.234130859375	58.33491134643555	1040.400146484375	642.8154296875	82.40187835693359	1082.306640625	696.25146484375	511.6002197265625	1055.3369140625	735.2012939453125	1158.255615234375	1061.957153320313	696.8785400390625	571.3548583984375	1061.47509765625	702.0252685546875	556.3101196289063	1190.425048828125	843.9077758789063	61.15610504150391	1125.624267578125	853.1596069335938	70.73169708251953	1079.493774414063	817.4171142578125	48.53957366943359	1013.102233886719	641.6495971679688	1121.897216796875	1178.577270507813	692.2124633789063	211.0348510742188	1033.30517578125	648.9092407226563	205.1320037841797	1060.418579101563	683.4111328125	291.2434692382813	1028.3564453125	638.4024047851563	288.9946594238281	1057.13525390625	715.3146362304688	704.5604858398438	1041.004272460938	655.064208984375	703.8486328125	1072.968383789063	711.1371459960938	814.969482421875	1035.644287109375	649.5263061523438	813.86962890625	1074.6494140625	754.0008544921875	476.7377014160156	1102.700927734375	692.4166870117188	114.88671875	1412.799194335938	716.8348999023438	117.731819152832	1326.722534179688	835.7982177734375	1074.779541015625	1323.100708007813	756.5020141601563	989.355712890625	1381.155517578125	633.0267333984375	41.13286972045898	1370.215942382813	660.7026977539063	61.79428100585938	1411.347900390625	641.5165405273438	87.78823089599609	1370.357788085938	716.5910034179688	511.3727111816406	1376.078369140625	755.0432739257813	1157.723754882813	1368.572998046875	718.4017333984375	576.896240234375	1369.12255859375	733.435546875	550.8441162109375	1242.571655273438	843.1541137695313	59.61445999145508	1326.5400390625	851.2538452148438	72.84597778320313	1375.482543945313	808.2877807617188	50.07788848876953	1441.27734375	647.78564453125	1121.67578125	1270.068481445313	701.8887329101563	208.8948211669922	1408.951904296875	653.7257080078125	206.1153869628906	1381.373046875	694.8490600585938	290.1956176757813	1410.377197265625	648.9951171875	286.5054321289063	1382.34375	731.6008911132813	725.5477905273438	1387.911743164063	668.6148071289063	722.0759887695313	1349.440307617188	719.518798828125	834.8795166015625	1390.817260742188	661.69677734375	831.7572021484375	1351.732788085938	777.6075439453125	486.3946838378906	1330.440185546875	
97	0.64	699.762451171875	107.6312789916992	1032.667602539063	714.7756958007813	118.2995147705078	1120.802978515625	815.7177734375	1081.302978515625	1094.723266601563	728.9883422851563	988.7689819335938	1049.093139648438	636.9694213867188	39.96248626708984	1081.4091796875	661.22900390625	58.34182739257813	1040.397705078125	642.8082275390625	82.40317535400391	1082.301391601563	696.2694702148438	511.598388671875	1055.33984375	735.2747192382813	1158.249755859375	1061.946533203125	696.8944702148438	571.3599853515625	1061.464233398438	702.026123046875	556.3193359375	1190.418579101563	843.9103393554688	61.15895080566406	1125.62890625	853.1714477539063	70.73224639892578	1079.49609375	817.4119262695313	48.53691101074219	1013.100463867188	641.6990356445313	1121.898803710938	1178.565551757813	692.2329711914063	211.0317077636719	1033.293823242188	648.9163818359375	205.1408386230469	1060.417114257813	683.4287719726563	291.2420654296875	1028.344604492188	638.419677734375	289.0001220703125	1057.121826171875	715.3534545898438	704.5484619140625	1040.995727539063	655.1000366210938	703.8594360351563	1072.952514648438	711.17431640625	814.9684448242188	1035.629760742188	649.5662231445313	813.8865356445313	1074.641845703125	754.01611328125	476.7316589355469	1102.705078125	692.4141845703125	114.8860702514648	1412.79345703125	716.8484497070313	117.7388610839844	1326.723754882813	835.84912109375	1074.775146484375	1323.075439453125	756.5443725585938	989.3604736328125	1381.137451171875	633.0282592773438	41.12994003295898	1370.213256835938	660.7127075195313	61.79545211791992	1411.34765625	641.5167846679688	87.79084014892578	1370.355102539063	716.6209716796875	511.3750915527344	1376.070434570313	755.0986328125	1157.72021484375	1368.562133789063	718.4323120117188	576.904052734375	1369.116821289063	733.4531860351563	550.8448486328125	1242.564331054688	843.1456909179688	59.60973358154297	1326.543701171875	851.2606201171875	72.85256958007813	1375.485717773438	808.2910766601563	50.07527923583984	1441.276123046875	647.8446655273438	1121.672119140625	1270.053955078125	701.8986206054688	208.9047241210938	1408.94970703125	653.7357177734375	206.1248016357422	1381.36474609375	694.8657836914063	290.1965026855469	1410.371704101563	649.0131225585938	286.5240173339844	1382.346923828125	731.6398315429688	725.5485229492188	1387.894897460938	668.6478881835938	722.095703125	1349.443603515625	719.5675659179688	834.8818359375	1390.79638671875	661.741455078125	831.768310546875	1351.733520507813	777.6227416992188	486.3965759277344	1330.44384765625	
